<?xml version="1.0" encoding="UTF-8"?>
<svg xmlns="http://www.w3.org/2000/svg" viewBox="0 0 987.46 851.29">
  <g id="shadow">
    <path d="M338.24,785.91c-60.84,2.57-122.58,10.65-142.09,18.74-17.54,7.1-17.18,17.96.54,24.27,35.25,12.83,100.57,17.36,248.92,17.36s224.05-5.13,257.51-17.56c20.94-7.7,18.79-19.14-5.19-27.03-12.88-4.34-57.98-10.46-94.84-13.02-28.45-2.17-230.13-4.14-264.85-2.76" stroke="#fff" stroke-linecap="round" stroke-linejoin="round" stroke-width="10"/>
  </g>
  <g id="Layer_1_copy_3" data-name="Layer 1 copy 3">
    <g>
      <path d="M425.04,676.89c-6.27,0-12.73-.31-19.2-.93-21.42-2.02-36.53-5.67-52.15-12.61l-10.57-4.97c-.67-.32-1.4-.47-2.13-.47-.62,0-1.25.12-1.84.35-.34.14-34.59,13.67-48.54,15.97-.08.01-.23.04-.31.06-2.01.43-12.83,2.58-28.15,2.58-21.94,0-53.76-4.47-80.76-25.77-.08-.07-.17-.13-.26-.19-18.67-12.88-35.82-34.01-47.05-57.99-8.86-18.93-18.12-48.33-12.11-81.21,1.03-2.89-.78-4.77-2.53-6.59-16.6-17.27-28.6-34.97-35.66-52.62-12.9-31.79-14.17-67.02-3.7-101.89,9.7-32.31,28.73-61.3,53.58-81.64,29.94-24.45,60.77-36.96,99.96-40.57l21.24-1.93c1.51-.14,2.88-.95,3.72-2.22l8.53-12.87c9.69-14.7,31.24-36.94,44.33-45.77,28.72-19.43,64.75-30.13,101.44-30.13,22.98,0,45.05,4.39,63.84,12.69,14.67,6.55,27.15,13.82,37.08,21.58,9.54,7.5,11.15,7.5,12.57,7.5,4.56,0,7.01-5.15,7.63-6.68.72-1.4,5.23-8.04,13.27-18.83,25.06-33.2,58.53-54.17,99.48-62.29,6.42-1.27,20.19-2.12,34.26-2.12,11.29,0,20.99.56,25.96,1.49,22.48,4.09,47.94,14.91,64.87,27.57,19.82,14.67,36.25,37.05,43.96,59.88,3.62,10.57,4.08,14.02,4.08,30.75l-.16,19.43c0,1.21.42,2.38,1.21,3.3l41.68,48.6c34.58,40.59,40.54,49.51,41.44,51.45,1.06,5.28-.44,22.87-3.54,34.79-6.23,22.54-26.77,39.95-52.32,44.29-2.09.34-5.22.52-9,.52h0c-12.19,0-30.96-1.82-50.2-4.87-8.1-1.16-18-2.31-22.03-2.31h-6.92c-2.76,0-5,2.24-5,5v58.1c0,51.69-.32,59.2-3.12,73.04-7.25,35.28-22.52,65.49-45.41,89.77-30.12,32.07-68.61,48.32-114.39,48.32-5.76,0-11.71-.27-17.67-.79-21.53-1.9-34.3-4.93-50.59-12l-13.67-5.95c-.64-.28-1.32-.42-2-.42s-1.33.13-1.95.4l-13.68,5.79c-20.92,8.91-43.63,13.43-67.53,13.43ZM572.17,581.2c-.94,1.31-2.1,2.95-3.36,4.73-2.63,3.73-5.61,7.96-7.95,11.03-.04.05-.08.1-.11.15-7.14,10.19-6.99,13.82-4.43,16.38,4.65,4.65,30.37,6.29,36.53,6.29,13.43,0,34.5-5.07,46.97-11.31,18.01-9.09,40.16-33.75,50.43-56.14,8.3-18.12,9.14-24.87,9.95-80.22.48-28.3.33-62.72-.32-76.82-.02-1.79-.35-21.87-4.93-42.31-4.62-20.65-14.69-45.27-36.41-45.27-1.45,0-2.94.11-4.45.34-2.08-4.3-5.3-17.22-4.09-34,1.1-15.27,6.16-36.7,23.75-53.52,23.17,6.54,42.83,9.85,58.48,9.85,37.88,0,41.97-19.19,41.97-27.44,0-14.15-11.25-31.31-29.35-44.79-19.8-14.74-43.95-22.86-68-22.86-29.18,0-71.43,12.05-107.03,69.46-.41.66-.66,1.41-.73,2.18-2.32,25.47-5.44,68.25-4.87,74.68l.45,4.7h-55.48v-41.35c0-1.27-.48-2.49-1.35-3.42l-11.91-12.71c-22.92-24.21-51.65-37-83.13-37-5.13,0-10.39.34-15.63,1.02-26.24,3.34-44.11,10.96-63.7,27.18-17.32,14.43-32.99,40.34-37.28,61.6,0,0-.99,4.54-1.22,5.59-2.3-.36-5.6-.94-9.59-1.77-9.1-1.72-20.53-2.66-32.27-2.66s-21.83.89-29.34,2.51c-46.7,10.15-86.82,50.46-95.43,95.85-5.58,32.73-1.35,58.98,12.56,78.09,12.15,16.71,28.43,23.32,36.88,25.76-3.99,14.21-13.09,53.78.62,79.51,17.81,33.7,50.69,54.64,85.8,54.64,13.23,0,26.1-2.93,38.23-8.7,19.05-9.02,37.72-29.18,51.22-55.33,2.03-4.06,3.8-7.51,5.11-10.05,1.1.94,2.42,2.11,3.93,3.53,12.44,11.59,18.97,16.3,34.94,25.17l8.94,5.05-4.55,6.78c-4.2,6.38-9.21,13.54-11.09,16-4.83,6.21-4.44,8.61-4.27,9.64.19,1.15.75,2.2,1.57,2.98,1.07,1.06,2.69,2.37,15.82,4.03,7.45.94,15.35,1.53,20.62,1.53,14.92,0,34.87-5,48.51-12.16,19.91-10.55,41.55-36.11,52.65-62.17l.29-.69c8.2,8.39,29.29,23.91,41.22,30.19l6.66,3.51-1.83,2.72ZM782.26,258.97c-8.05,0-15.22,4.49-18.72,11.71-3.37,6.95-2.51,15,2.24,21.01,4.28,5.47,10.42,8.62,16.84,8.62s12.39-3.09,16.61-8.48c4.45-5.64,7.77-14.67-1.8-25.53-5.16-5.76-8.42-7.33-15.18-7.33Z"/>
      <path d="M681.03,92.32c11,0,20.36.52,25.04,1.4.02,0,.04,0,.05,0,21.75,3.96,46.38,14.42,62.79,26.68,19.01,14.07,34.78,35.55,42.19,57.48,3.41,9.95,3.8,12.94,3.8,29.07l-.16,19.42c-.02,2.42.84,4.76,2.41,6.59l41.66,48.58c31.34,36.79,38.76,47.04,40.46,49.89.6,5-.76,20.95-3.57,31.8-5.75,20.7-24.7,36.66-48.3,40.68-1.31.21-3.8.46-8.22.46-11.95,0-30.42-1.8-49.42-4.81-.05,0-.1-.02-.15-.02-1.69-.24-16.65-2.35-22.66-2.35h-6.92c-5.52,0-10,4.48-10,10v58.1c0,51.24-.31,58.65-3.01,72.02-7.06,34.37-21.91,63.77-44.16,87.38-29.14,31.02-66.4,46.74-110.74,46.74-5.62,0-11.42-.26-17.23-.77-21.19-1.87-33.11-4.69-49.03-11.6l-13.68-5.95c-1.27-.55-2.63-.83-3.99-.83s-2.65.26-3.9.79l-13.7,5.8c-20.28,8.64-42.34,13.02-65.56,13.02-6.11,0-12.42-.3-18.74-.9-20.81-1.96-35.46-5.49-50.53-12.18l-10.53-4.94c-1.34-.63-2.8-.95-4.25-.95-1.25,0-2.5.23-3.68.7-9.44,3.74-36.38,13.85-47.48,15.68-.04,0-.23.04-.57.11-1.93.41-12.29,2.47-27.11,2.47-21.15,0-51.79-4.28-77.67-24.7-.17-.13-.34-.26-.52-.38-17.96-12.39-34.49-32.8-45.36-55.99-8.53-18.22-17.44-46.46-11.77-77.94.64-2.24.94-6.13-2.62-9.97-.26-.29-.66-.7-1.17-1.23-16.15-16.8-27.8-33.97-34.64-51.06-12.46-30.7-13.68-64.78-3.54-98.55,9.42-31.36,27.87-59.49,51.95-79.2,29.12-23.79,59.12-35.96,97.25-39.47l21.24-1.93c3.02-.27,5.76-1.91,7.43-4.44l8.54-12.89c9.41-14.26,30.28-35.82,42.96-44.38,13.94-9.43,29.73-16.77,46.94-21.81,16.87-4.94,34.26-7.45,51.69-7.45,22.29,0,43.67,4.24,61.78,12.25,14.32,6.4,26.45,13.45,36.04,20.94,10.15,7.98,12.8,8.57,15.67,8.57,6.01,0,10.15-4.79,12.14-9.49.98-1.7,5.41-8.14,12.75-18,24.31-32.2,56.77-52.53,96.45-60.4,6.14-1.21,19.52-2.03,33.3-2.03M559.19,281.33h-45.01v-36.35c0-2.54-.97-4.98-2.7-6.84l-11.91-12.71s-.02-.02-.04-.04c-23.87-25.22-53.86-38.55-86.74-38.55-5.35,0-10.82.36-16.25,1.06-26.94,3.43-46.13,11.63-66.29,28.31-18.07,15.06-34.44,42.12-38.95,64.37l-.2.91c-1.43-.26-3.01-.57-4.71-.93-.06-.01-.12-.02-.18-.04-9.3-1.76-21.06-2.73-33.11-2.73s-22.54.93-30.42,2.62c-23.36,5.08-46.2,17.88-64.32,36.04-18.2,18.25-30.62,40.89-34.95,63.76-.01.06-.02.12-.03.18-5.8,34.02-1.27,61.53,13.46,81.78,11,15.12,25.23,22.55,34.89,26.08-4.41,17.48-10.98,53.78,2.22,78.57,18.68,35.36,53.26,57.32,90.23,57.32,13.98,0,27.57-3.09,40.36-9.18,20.03-9.48,39.54-30.46,53.53-57.56.02-.04.04-.08.06-.11.73-1.46,1.43-2.86,2.09-4.15,12.18,11.29,18.96,16.11,34.92,24.98l4.25,2.4-1.54,2.3s-.03.05-.05.08c-4.1,6.23-8.99,13.23-10.84,15.65-5.42,6.98-5.7,10.74-5.25,13.5.36,2.21,1.43,4.23,3.02,5.76,2.16,2.12,4.83,3.66,18.68,5.42,7.76.98,15.7,1.57,21.25,1.57,15.9,0,36.33-5.12,50.87-12.75,19.32-10.24,40.16-33.88,52.27-58.87,10.23,8.9,26.79,20.74,37.19,26.21l1.68.89c-.62.87-1.28,1.81-1.97,2.79-2.6,3.69-5.56,7.88-7.84,10.88-.08.1-.15.2-.23.31-1.91,2.72-3.6,5.5-4.76,7.82-3.11,6.23-2.81,11.26.89,14.96,2.06,2.06,5.02,4.07,18.38,6.02,7.44,1.09,15.54,1.73,21.68,1.73,14.32,0,35.93-5.2,49.24-11.85,19.19-9.68,41.84-34.84,52.7-58.51,8.3-18.13,9.55-24.54,10.4-82.21.48-28.34.33-62.82-.32-77.06-.03-2.39-.43-22.65-5.05-43.26-2.95-13.18-7.06-23.86-12.21-31.73-9.44-14.42-21.02-17.45-29.08-17.45-.37,0-.74,0-1.11.02-1.7-5.68-3.51-16.74-2.3-30.02,1.2-13.27,5.73-31.65,20.09-46.58,22.39,6.14,41.55,9.25,57.01,9.25,27.15,0,38.48-9.76,43.21-17.94,5.89-10.2,4.87-23.21-2.88-36.62-14.5-25.11-52.02-50.52-95.69-50.52h-.01c-20.29,0-39.71,5.47-57.7,16.27-20.2,12.12-38.23,30.81-53.58,55.56-.82,1.32-1.32,2.82-1.46,4.36-1.98,21.82-5.32,65.59-4.92,74.83M761.85,294.77c5.25,6.7,12.82,10.54,20.79,10.54s15.38-3.79,20.52-10.36c7.87-9.97,7.16-21.62-1.95-31.96-.02-.02-.04-.04-.06-.07-5.33-5.94-9.71-8.96-18.87-8.96-9.98,0-18.88,5.57-23.22,14.53-4.2,8.68-3.13,18.74,2.8,26.27M365.47,543.16h0,0M681.03,82.32c-13.58,0-27.99.78-35.24,2.22-42.16,8.37-76.76,30.09-102.51,64.21-6.6,8.85-12.87,17.7-13.84,19.79-.8,2.09-2.25,3.7-3.06,3.7s-4.99-2.9-9.49-6.44c-10.3-8.05-23.01-15.45-38.14-22.21-19.96-8.82-42.67-13.12-65.86-13.12-36.47,0-74.14,10.62-104.24,30.98-13.84,9.33-35.73,32.02-45.7,47.15l-8.53,12.87-21.24,1.93c-40.23,3.7-71.94,16.58-102.67,41.68-50.53,41.36-79.55,119.74-51.35,189.26,12.94,32.35,38.64,55.76,38.08,55.76,0,0-.02,0-.04-.01-11.15,59.02,23.77,119.18,61.11,144.93,28.01,22.09,60.81,26.85,83.86,26.85,17.33,0,29.14-2.69,29.27-2.71,14.64-2.41,49.57-16.25,49.57-16.25l10.62,4.99c15.93,7.08,31.54,10.94,53.75,13.04,6.66.63,13.22.95,19.67.95,24.73,0,47.91-4.63,69.48-13.82l13.68-5.79,13.68,5.95c17.06,7.4,30.25,10.46,52.14,12.39,6.14.54,12.18.81,18.11.81,46.9,0,87.03-16.89,118.03-49.9,23.66-25.1,39.27-56.16,46.67-92.21,2.9-14.32,3.22-22.21,3.22-74.03v-58.1h6.92c3.7,0,13.36,1.13,21.24,2.25,19.88,3.15,38.66,4.93,50.99,4.93,4.04,0,7.38-.19,9.85-.59,27.52-4.67,49.57-23.5,56.33-47.96,3.06-11.75,4.99-30.9,3.54-37.34-.64-3.22-15.61-21.89-42.49-53.43l-41.68-48.6.16-19.47c0-17.06-.48-21.08-4.34-32.35-8.05-23.82-25.27-47.15-45.7-62.28-17.86-13.36-43.93-24.3-66.95-28.48-5.72-1.07-16.04-1.57-26.88-1.57h0ZM504.18,291.33h65.98l-.97-10.14c-.48-5.47,2.28-45.27,4.87-73.79,30.93-49.88,68.73-67.09,102.78-67.1,75.74,0,133,85.09,55.38,85.09-14.78,0-34.44-3.08-59.8-10.42-40.83,36.3-26.19,98.5-19.95,98.5.14,0,.28-.03.41-.09,1.98-.44,3.87-.65,5.66-.65,35.64,0,36.34,82.73,36.34,82.73.64,13.68.8,48.12.32,76.6-.8,54.72-1.61,60.99-9.49,78.21-9.82,21.4-30.9,45.06-48.12,53.75-11.91,5.95-32.02,10.78-44.74,10.78s-30.9-2.74-32.99-4.83c-.64-.64,1.61-5.15,4.99-9.98,3.54-4.67,8.53-11.91,11.43-15.93l4.99-7.4-11.59-6.12c-12.23-6.44-34.76-23.17-41.2-30.58l-3.86-4.51-3.38,8.05c-10.62,24.94-31.54,49.73-50.37,59.7-12.87,6.76-31.86,11.59-46.19,11.59-10.94,0-31.38-2.57-32.99-4.18-.48-.32.97-3.06,3.22-5.95,2.09-2.74,7.24-10.14,11.27-16.25l7.56-11.27-13.68-7.72c-15.93-8.85-22.05-13.36-33.96-24.46-4.45-4.14-8.32-7.26-8.94-7.26-.03,0-.05,0-.07.02-.32.32-3.86,7.08-7.89,15.13-12.87,24.94-30.9,44.58-48.92,53.11-11.7,5.56-23.96,8.22-36.09,8.22-32.43,0-63.94-18.96-81.39-51.99-15.78-29.61,1.29-80.81,1.29-80.81,0,0-66.14-9.6-50.86-99.27,8.21-43.29,47.15-82.23,91.57-91.89,7.39-1.59,17.65-2.39,28.29-2.39s22.21.84,31.25,2.56c6.73,1.4,12.6,2.31,14.11,2.31.22,0,.35-.02.37-.06.16-.32,1.13-4.83,2.25-9.98,4.02-19.96,19.15-45.06,35.57-58.74,18.67-15.45,35.89-22.85,61.15-26.07,5.06-.66,10.06-.98,14.99-.98,30.14,0,57.48,12.18,79.48,35.42l11.91,12.71v46.35h0ZM782.63,295.31c-4.71,0-9.43-2.25-12.92-6.72-7.89-9.98-.32-24.62,12.55-24.62,5.31,0,7.24.97,11.43,5.63,5.95,6.76,6.44,13.04,1.61,19.15-3.43,4.39-8.04,6.56-12.67,6.56h0Z" fill="#fff"/>
    </g>
  </g>
</svg>