<?xml version="1.0" encoding="UTF-8"?>
<svg id="Layer_1" data-name="Layer 1" xmlns="http://www.w3.org/2000/svg" viewBox="0 0 714.97 608.27">
  <g>
    <path d="M304.06,502.36c-5.23,0-10.62-.26-16.01-.77-17.85-1.68-30.43-4.72-43.43-10.49l-8.85-4.16c-.67-.32-1.4-.47-2.13-.47-.62,0-1.25.12-1.84.35-.29.11-28.9,11.42-40.5,13.33-.08.01-.22.04-.3.06-1.67.36-10.68,2.14-23.42,2.14-18.25,0-44.72-3.72-67.17-21.42-.08-.07-.17-.13-.26-.19-15.53-10.71-29.8-28.3-39.14-48.26-7.37-15.74-15.07-40.18-10.1-67.49.99-2.86-.84-4.76-2.32-6.29-13.84-14.4-23.83-29.14-29.71-43.83-10.74-26.47-11.8-55.8-3.08-84.84,8.08-26.92,23.93-51.07,44.63-68.01,24.95-20.38,50.65-30.81,83.32-33.81l17.79-1.62c1.51-.14,2.88-.95,3.72-2.22l7.15-10.79c8.08-12.25,26.02-30.77,36.92-38.12,23.93-16.19,53.96-25.1,84.54-25.1,19.14,0,37.52,3.65,53.16,10.57,12.23,5.46,22.63,11.51,30.9,17.97,8.21,6.45,9.65,6.45,11.03,6.45,3.45,0,5.93-3.1,7.14-6.08.64-1.2,4.41-6.74,11.03-15.62,20.87-27.65,48.75-45.11,82.86-51.88,5.33-1.05,16.8-1.76,28.55-1.76,9.41,0,17.49.46,21.6,1.23,18.73,3.41,39.92,12.41,54.02,22.96,16.48,12.2,30.14,30.8,36.55,49.78,3,8.75,3.38,11.61,3.38,25.5l-.13,16.27c0,1.15.38,2.28,1.1,3.18,0,0,35.07,43.58,35.1,43.62,28.42,33.36,33.69,41.08,34.57,42.86.82,4.37-.46,19.04-2.98,28.69-5.13,18.57-22.09,32.93-43.19,36.51-.32.05-1.57.19-5.32.19h0c-18.34,0-67.59-3.24-68.09-3.27-.11,0-.22-.01-.33-.01-1.26,0-2.49.48-3.42,1.35-1.01.95-1.58,2.27-1.58,3.65,0,24.93,0,91.17-2.68,104.41-6.04,29.41-18.77,54.59-37.84,74.82-25.08,26.7-57.13,40.23-95.26,40.23-4.81,0-9.76-.22-14.74-.66-17.94-1.58-28.58-4.1-42.14-9.99l-11.46-4.99c-.64-.28-1.32-.42-2-.42s-1.33.13-1.95.4l-11.46,4.85c-17.42,7.42-36.35,11.19-56.26,11.19ZM426.66,422.53c-.79,1.1-1.77,2.48-2.82,3.98-2.2,3.11-4.69,6.64-6.63,9.21-.04.05-.08.1-.11.15-5.52,7.89-6.5,11.89-3.62,14.77,4.41,4.41,27.97,5.51,31.17,5.51,11.55,0,28.99-4.2,39.72-9.56,15.49-7.82,33.81-28.2,42.63-47.42,7.02-15.33,7.73-21.01,8.41-67.54.4-23.77.28-52.71-.27-64.49-.08-1.79-1.12-3.4-2.71-4.22-.12-.06-12.83-6.67-23.13-17.94-13.07-14.29-16.35-29.22-9.76-44.38,8.41-19.33,6.24-31.28,4.51-40.89-1.31-7.25-2.35-12.97,1.1-20.9,3.72-8.58,10.54-12.75,20.84-12.75,3.43,0,7.25.48,11.35,1.42.08.02.16.04.25.05,8.84,1.56,16.86,2.36,23.86,2.36,11.42,0,20.33-2.1,26.49-6.23,6.21-4.17,9.5-10.24,9.5-17.57,0-12.29-9.32-26.56-24.92-38.18-16.73-12.46-37.14-19.31-57.46-19.31-24.65,0-60.34,10.16-90.37,58.58-.41.66-.66,1.41-.73,2.18-1.94,21.37-4.56,57.28-4.08,62.71l.29,3.06h-44.78v-33.83c0-1.27-.48-2.49-1.35-3.42l-9.98-10.65c-19.36-20.46-43.64-31.26-70.24-31.26-4.33,0-8.78.29-13.2.86-21.87,2.79-37.45,9.44-53.78,22.95-14.64,12.2-27.89,34.1-31.51,52.08,0,0-.71,3.27-.86,3.92-1.86-.3-4.33-.75-7.25-1.36-7.68-1.45-17.31-2.25-27.21-2.25s-18.4.75-24.75,2.12c-39.43,8.57-73.32,42.61-80.58,80.95-4.71,27.66-1.12,49.86,10.67,66.06,9.96,13.69,23.18,19.4,30.57,21.65-3.46,12.6-10.58,45.09.8,66.45,15.06,28.5,42.88,46.21,72.61,46.21,11.21,0,22.1-2.48,32.38-7.37,16.12-7.63,31.9-24.66,43.29-46.72,1.47-2.94,2.77-5.49,3.81-7.5.74.65,1.57,1.4,2.5,2.26,10.48,9.77,15.98,13.73,29.43,21.21l6.73,3.8-3.33,4.95c-3.51,5.34-7.69,11.32-9.26,13.37-4.26,5.47-3.9,7.65-3.73,8.7.18,1.13.74,2.17,1.55,2.94,1.03,1.02,2.43,2.18,13.72,3.6,6.27.79,12.93,1.29,17.38,1.29,12.62,0,29.49-4.23,41.02-10.28,16.7-8.85,34.83-30.16,44.26-51.97,7.46,7.24,24.23,19.51,33.88,24.6l4.78,2.52-1.03,1.52ZM603.36,152.2c-7.06,0-13.35,3.93-16.41,10.27-2.96,6.11-2.2,13.18,1.97,18.46,3.74,4.78,9.12,7.53,14.75,7.53s10.87-2.7,14.55-7.42c3.21-4.06,7.29-12.41-1.54-22.43-4.47-4.98-7.45-6.41-13.33-6.41Z" fill="#010101"/>
    <path d="M518.54,15c8.98,0,16.91.44,20.68,1.15.02,0,.04,0,.05,0,18,3.27,38.37,11.92,51.93,22.07,15.68,11.6,28.67,29.3,34.78,47.39,2.71,7.9,3.1,9.95,3.1,23.82l-.13,16.27c-.02,2.31.76,4.55,2.21,6.35l35.01,43.51c.06.07.12.15.18.22,25.26,29.65,31.86,38.59,33.56,41.28.35,4.1-.62,16.59-2.98,25.69-4.65,16.72-19.99,29.62-39.11,32.9-.2.02-1.28.13-4.58.13-18.18,0-67.26-3.23-67.76-3.26-.22-.01-.44-.02-.66-.02-2.53,0-4.98.96-6.83,2.7-2.02,1.89-3.17,4.53-3.17,7.3,0,22.42,0,90.67-2.57,103.39-5.85,28.5-18.16,52.86-36.6,72.43-24.09,25.65-54.91,38.65-91.61,38.65-4.66,0-9.47-.22-14.3-.64-17.56-1.55-27.42-3.88-40.57-9.59l-11.46-4.99c-1.27-.55-2.63-.83-3.99-.83s-2.65.26-3.9.79l-11.48,4.86c-16.79,7.15-35.06,10.78-54.3,10.78-5.07,0-10.3-.25-15.55-.75-17.24-1.62-29.37-4.54-41.82-10.06l-8.8-4.13c-1.34-.63-2.8-.95-4.25-.95-1.25,0-2.5.23-3.68.7-7.86,3.12-30.29,11.53-39.44,13.04-.04,0-.23.04-.56.11-1.59.34-10.12,2.03-22.37,2.03-17.46,0-42.75-3.53-64.07-20.34-.17-.13-.34-.26-.52-.38-14.82-10.22-28.47-27.09-37.45-46.27-7.05-15.05-14.42-38.38-9.73-64.34.56-2.16.83-6.02-2.6-9.73-.23-.24-.56-.6-1-1.05-13.39-13.93-23.03-28.13-28.69-42.27-10.3-25.38-11.3-53.56-2.91-81.5,7.8-25.97,23.07-49.26,43-65.57,24.14-19.71,49-29.8,80.61-32.71l17.8-1.62c3.02-.27,5.76-1.91,7.43-4.44l7.16-10.8c7.65-11.6,25.25-29.78,35.55-36.73,22.78-15.41,52.57-24.24,81.74-24.24,18.45,0,36.14,3.51,51.1,10.12,11.88,5.31,21.93,11.15,29.86,17.34,8.25,6.48,10.93,7.53,14.13,7.53,5.78,0,9.73-4.45,11.62-8.84.89-1.5,4.56-6.83,10.53-14.84,20.12-26.65,46.99-43.47,79.83-49.99,5.05-1,16.14-1.67,27.59-1.67M414.8,170.12h-34.44v-28.83c0-2.54-.97-4.98-2.7-6.84l-9.98-10.65s-.02-.03-.04-.04c-20.31-21.46-45.85-32.8-73.85-32.8-4.55,0-9.21.3-13.82.9-22.9,2.92-39.23,9.89-56.38,24.08-15.18,12.65-28.95,35.24-33.02,54.06-.75-.15-1.54-.3-2.36-.48-.06-.01-.12-.02-.18-.04-7.89-1.49-17.85-2.32-28.04-2.32s-19.12.79-25.83,2.23c-41.29,8.98-76.8,44.68-84.42,84.9-.01.06-.02.12-.03.18-4.93,28.95-1.04,52.42,11.57,69.75,8.94,12.29,20.37,18.67,28.64,21.9-1.08,4.45-2.27,10.11-3.14,16.38-2.85,20.48-1,37.05,5.48,49.21,15.93,30.16,45.45,48.89,77.04,48.89,11.96,0,23.57-2.64,34.51-7.85,17.1-8.09,33.72-25.93,45.6-48.95.02-.04.04-.08.06-.11.27-.54.53-1.06.78-1.56,9.28,8.46,15.34,12.67,27.99,19.7l2.03,1.15-.31.47s-.03.05-.05.08c-3.31,5.03-7.47,10.99-9,13.01-4.93,6.34-5.15,9.91-4.72,12.57.36,2.2,1.42,4.21,3,5.73,2.35,2.29,5.42,3.57,16.58,4.98,6.56.83,13.3,1.33,18.01,1.33,13.56,0,30.98-4.36,43.38-10.87,15.98-8.47,33.15-27.64,43.56-48.17,8.94,7.52,21.96,16.59,29.66,20.69-.19.27-.39.55-.59.84-2.17,3.08-4.64,6.58-6.53,9.07-.08.1-.15.2-.23.31-3.24,4.62-9.97,14.25-3.06,21.17,2.32,2.32,5.73,3.96,16.31,5.5,6.31.92,13.19,1.47,18.4,1.47,12.21,0,30.64-4.43,41.99-10.11,16.37-8.26,35.67-29.67,44.9-49.8,7.6-16.59,8.2-24.2,8.86-69.52.4-23.87.28-52.95-.28-64.82-.17-3.57-2.24-6.78-5.41-8.42-.12-.06-12.22-6.39-21.9-17.05-11.65-12.82-14.49-25.53-8.7-38.84,9.01-20.72,6.7-33.5,4.84-43.77-1.25-6.91-2.08-11.48.76-18.02,1.97-4.53,5.6-9.74,16.25-9.74,3.05,0,6.49.43,10.24,1.29.16.04.33.07.49.1,9.12,1.61,17.44,2.43,24.73,2.43,38.03,0,40.98-22.04,40.98-28.8,0-13.86-10.07-29.64-26.93-42.19-17.59-13.09-39.06-20.3-60.45-20.3-17.3,0-33.85,4.66-49.18,13.86-17.15,10.29-32.44,26.13-45.43,47.09-.82,1.32-1.32,2.82-1.46,4.36-1.61,17.71-4.14,50.73-4.15,61.22M584.96,183.99c4.71,6.02,11.52,9.47,18.7,9.47s13.85-3.4,18.46-9.3c7.13-9.03,6.51-19.54-1.69-28.85-.02-.02-.04-.04-.06-.07-4.68-5.22-8.77-8.04-17.02-8.04-8.99,0-17,5.01-20.91,13.09-3.79,7.83-2.83,16.91,2.52,23.7M255.53,391.95h0,0M518.54,5c-11.38,0-23.45.66-29.52,1.86-35.33,7.01-64.32,25.21-85.89,53.8-5.53,7.42-10.79,14.83-11.6,16.58-.67,1.75-1.89,3.1-2.56,3.1s-4.18-2.43-7.96-5.39c-8.63-6.74-19.28-12.94-31.96-18.61-16.72-7.39-35.75-10.99-55.18-10.99-30.56,0-62.12,8.9-87.34,25.96-11.6,7.82-29.93,26.83-38.29,39.51l-7.15,10.79-17.8,1.62c-33.71,3.1-60.27,13.89-86.03,34.92C14.93,192.8-9.39,258.47,14.24,316.72c10.84,27.1,32.37,46.72,31.9,46.72,0,0-.02,0-.03-.01-9.34,49.45,19.92,99.86,51.2,121.43,23.47,18.51,50.95,22.49,70.26,22.49,14.52,0,24.42-2.25,24.53-2.27,12.27-2.02,41.53-13.62,41.53-13.62l8.9,4.18c13.35,5.93,26.43,9.17,45.04,10.92,5.58.53,11.08.79,16.48.79,20.72,0,40.14-3.88,58.21-11.58l11.46-4.85,11.46,4.99c14.29,6.2,25.35,8.76,43.69,10.38,5.15.45,10.21.68,15.18.68,39.3,0,72.92-14.15,98.9-41.81,19.82-21.03,32.9-47.06,39.1-77.26,2.43-12,2.78-61.98,2.78-105.4,0,0,49.69,3.28,68.41,3.28,2.89,0,5.04-.08,6.16-.26,23.06-3.91,41.53-19.69,47.19-40.18,2.56-9.84,4.18-25.89,2.97-31.28-.54-2.7-13.08-18.34-35.6-44.77l-35.01-43.51.13-16.32c0-14.29-.4-17.66-3.64-27.1-6.74-19.96-21.17-39.51-38.29-52.18-14.97-11.19-36.81-20.36-56.09-23.87-4.79-.9-13.44-1.32-22.52-1.32h0ZM370.36,180.12h55.28l-.81-8.49c-.4-4.58,1.91-37.93,4.08-61.82,25.92-41.8,57.59-56.22,86.12-56.22,63.46,0,111.44,71.29,46.4,71.29-6.5,0-14.13-.71-22.99-2.28-4.71-1.08-8.84-1.54-12.47-1.54-17.12,0-23.08,10.37-25.42,15.76-9.08,20.92,8.47,29.44-5.6,61.78-18.05,41.5,35.19,68.77,35.19,68.77.54,11.46.67,40.32.27,64.18-.67,45.84-1.35,51.1-7.96,65.53-8.23,17.93-25.89,37.75-40.32,45.04-9.98,4.99-26.83,9.03-37.48,9.03s-25.89-2.29-27.64-4.05c-.54-.54,1.35-4.31,4.18-8.36,2.97-3.91,7.15-9.98,9.57-13.35l4.18-6.2-9.71-5.12c-10.25-5.39-29.12-19.42-34.52-25.62l-3.24-3.78-2.83,6.74c-8.9,20.9-26.43,41.66-42.2,50.02-10.79,5.66-26.7,9.71-38.7,9.71-9.17,0-26.29-2.16-27.64-3.51-.4-.27.81-2.56,2.7-4.99,1.75-2.29,6.07-8.49,9.44-13.62l6.34-9.44-11.46-6.47c-13.35-7.42-18.47-11.19-28.45-20.5-3.73-3.47-6.97-6.09-7.49-6.09-.03,0-.04,0-.06.02-.27.27-3.24,5.93-6.61,12.67-10.79,20.9-25.89,37.35-40.99,44.5-9.8,4.66-20.07,6.89-30.24,6.89-27.17,0-53.57-15.89-68.19-43.56-13.22-24.81,1.08-67.71,1.08-67.71,0,0-55.41-8.04-42.61-83.17,6.88-36.27,39.51-68.9,76.72-76.99,6.19-1.33,14.79-2.01,23.7-2.01s18.61.71,26.19,2.14c5.64,1.17,10.56,1.94,11.82,1.94.19,0,.3-.02.31-.05.13-.27.94-4.05,1.89-8.36,3.37-16.72,16.05-37.75,29.8-49.22,15.64-12.94,30.07-19.15,51.24-21.84,4.24-.55,8.43-.82,12.56-.82,25.25,0,48.16,10.21,66.59,29.68l9.98,10.65v38.83h0ZM603.66,183.46c-3.95,0-7.9-1.89-10.83-5.63-6.61-8.36-.27-20.63,10.52-20.63,4.45,0,6.07.81,9.57,4.72,4.99,5.66,5.39,10.92,1.35,16.05-2.87,3.67-6.74,5.5-10.61,5.5h0Z" fill="#fff"/>
  </g>
  <rect x="571.3" y="146.09" width="59.41" height="57.73" fill="#010101"/>
  <circle cx="603.23" cy="169.66" r="17.7" fill="#fff"/>
  <path d="M424.41,608.01c52.9-1.48,106.57-6.15,123.53-10.83,15.25-4.11,14.94-10.39-.46-14.05-30.65-7.43-87.43-10.07-216.41-10.09-129.44-.02-194.78,2.93-223.88,10.12-18.2,4.45-16.34,11.08,4.51,15.65,11.2,2.51,50.41,6.06,82.45,7.55,24.74,1.26,200.07,2.43,230.25,1.64" fill="#010101"/>
</svg>