<?xml version="1.0" encoding="UTF-8"?>
<svg id="Layer_1" data-name="Layer 1" xmlns="http://www.w3.org/2000/svg" viewBox="0 0 983.86 851.29">
  <path d="M419.99,711.38c-7.26,0-14.74-.36-22.23-1.07-24.8-2.34-42.31-6.57-60.41-14.61l-12.21-5.74c-.67-.32-1.4-.47-2.13-.47-.62,0-1.25.12-1.84.35-.4.16-39.99,15.8-56.16,18.47-.08.01-.24.04-.32.06-2.33.5-14.88,3-32.65,3-25.43,0-62.33-5.19-93.66-29.9-.08-.07-.17-.13-.26-.19-21.65-14.93-41.53-39.43-54.54-67.22-10.28-21.96-21.02-56.07-14.03-94.23,1.07-2.92-.69-4.76-2.73-6.87-19.22-20-33.12-40.51-41.3-60.96-14.95-36.85-16.43-77.67-4.3-118.07,11.24-37.42,33.28-71.01,62.07-94.57,34.67-28.32,70.37-42.81,115.76-46.98l24.5-2.23c1.51-.14,2.88-.95,3.72-2.22l9.84-14.85c11.23-17.02,36.19-42.79,51.36-53.02,33.26-22.5,74.98-34.89,117.48-34.89,26.62,0,52.2,5.09,73.97,14.71,16.98,7.59,31.44,16,42.95,24.99,10.8,8.49,12.59,8.49,14.03,8.49,3.85,0,6.75-3.87,8.11-7.27.82-1.6,6.01-9.27,15.39-21.85,29.03-38.47,67.81-62.76,115.25-72.17,7.45-1.47,23.4-2.46,39.68-2.46,13.07,0,24.32.65,30.09,1.73,26.05,4.74,55.54,17.28,75.17,31.96,22.99,17.02,42.05,42.98,50.99,69.46,4.22,12.3,4.75,16.31,4.75,35.72l-.19,22.43c0,1.21.42,2.38,1.21,3.3l48.09,56.08c40.45,47.47,47.06,57.52,47.97,59.63,1.27,6.07-.45,26.67-4.08,40.58-7.27,26.31-31.22,46.61-60.99,51.66-2.49.4-6.05.61-10.52.61-14.11,0-35.81-2.1-58.04-5.63-9.31-1.33-20.69-2.66-25.29-2.66h-7.98c-2.76,0-5,2.24-5,5v67.03c0,59.71-.37,68.39-3.61,84.42-8.39,40.85-26.08,75.83-52.59,103.96-34.91,37.16-79.5,56-132.55,56-6.67,0-13.56-.31-20.46-.92-24.94-2.2-39.73-5.71-58.61-13.9l-15.78-6.87c-.64-.28-1.32-.42-2-.42s-1.33.13-1.95.4l-15.78,6.68c-24.23,10.32-50.54,15.55-78.22,15.55ZM590.38,600.65c-1.1,1.52-2.44,3.44-3.91,5.51-3.03,4.29-6.46,9.16-9.16,12.71-.04.05-.08.1-.11.15-8.78,12.55-7.29,15.83-5.19,17.92,4.91,4.92,33.26,7.03,41.6,7.03,15.39,0,39.55-5.82,53.86-12.97,20.65-10.42,46.04-38.71,57.83-64.4,9.51-20.77,10.47-28.53,11.41-92.25.55-32.65.39-72.35-.37-88.6-.02-1.95-.39-25.11-5.67-48.68-5.27-23.56-16.71-51.63-41.27-51.63-1.81,0-3.67.16-5.56.47-2.25-4.26-6.02-17.99-5.26-36.52.78-18.94,6.35-45.53,28.16-66.16,26.85,7.6,49.61,11.45,67.68,11.45,43.02,0,47.66-21.6,47.66-30.89,0-16.09-12.86-35.65-33.56-51.06-22.72-16.91-50.42-26.22-78-26.22-33.47,0-81.95,13.84-122.84,79.78-.41.66-.66,1.41-.73,2.18-2.67,29.36-6.27,78.65-5.62,86.03l.6,6.26h-65.63v-48.48c0-1.27-.48-2.49-1.35-3.42l-13.74-14.67c-26.29-27.78-59.25-42.45-95.35-42.45-5.89,0-11.92.4-17.94,1.17-30.12,3.84-50.62,12.58-73.11,31.19-19.86,16.55-37.83,46.25-42.75,70.64,0,0-1.26,5.78-1.57,7.16-2.76-.41-6.91-1.13-11.82-2.16-10.44-1.98-23.57-3.05-37.08-3.05s-25.08,1.02-33.69,2.87c-25.75,5.6-50.95,19.74-70.98,39.82-20.09,20.14-33.77,45.06-38.53,70.17-6.4,37.54-1.56,67.62,14.36,89.51,14.27,19.61,33.48,27.05,42.89,29.64-4.46,15.63-15.49,62,.45,91.91,20.41,38.63,58.09,62.64,98.32,62.64,15.15,0,29.88-3.35,43.79-9.97,21.83-10.33,43.25-33.48,58.74-63.5,2.52-5.05,4.76-9.41,6.35-12.45,1.4,1.18,3.18,2.75,5.3,4.72,14.29,13.33,21.8,18.73,40.16,28.94l11.05,6.24-5.72,8.51c-4.84,7.36-10.63,15.65-12.82,18.5-5.37,6.9-4.95,9.44-4.78,10.53.19,1.16.76,2.22,1.59,3.01,1.1,1.09,2.93,2.56,17.81,4.44,8.57,1.08,17.65,1.76,23.7,1.76,17.11,0,39.98-5.73,55.62-13.94,22.83-12.09,47.65-41.43,60.4-71.36l.79-1.87c8.74,9.38,34.04,28.09,48.17,35.53l8.44,4.45-2.6,3.86ZM832.16,229.18c-8.99,0-17,5.01-20.91,13.08-3.75,7.75-2.8,16.73,2.5,23.43,4.79,6.13,11.66,9.65,18.83,9.65s13.84-3.46,18.55-9.49c4.96-6.28,8.65-16.35-2.04-28.48-5.77-6.44-9.41-8.19-16.93-8.19Z"/>
  <path d="M715.36,34.59c12.78,0,23.69.61,29.17,1.64.02,0,.04,0,.05,0,25.31,4.6,53.99,16.78,73.08,31.06,22.18,16.42,40.58,41.47,49.22,67.06,4.01,11.7,4.47,15.2,4.47,34.03l-.19,22.43c-.02,2.42.84,4.76,2.41,6.59l48.07,56.05c37.1,43.54,45.27,55.02,47,58.04.79,5.65-.67,24.34-4.11,37.61-6.79,24.47-29.14,43.32-56.96,48.06-1.57.25-4.52.55-9.73.55-13.86,0-35.27-2.08-57.26-5.57-.05,0-.1-.02-.15-.02-8.72-1.25-20.74-2.7-25.92-2.7h-7.98c-5.52,0-10,4.48-10,10v67.03c0,59.26-.36,67.84-3.51,83.4-8.2,39.94-25.47,74.11-51.34,101.56-33.92,36.11-77.29,54.42-128.9,54.42-6.53,0-13.26-.3-20.02-.9-24.64-2.17-38.5-5.46-57.05-13.51l-15.78-6.87c-1.27-.55-2.63-.83-3.99-.83s-2.65.26-3.9.79l-15.8,6.69c-23.6,10.05-49.25,15.15-76.25,15.15-7.1,0-14.42-.35-21.76-1.05-24.2-2.28-41.24-6.39-58.8-14.18l-12.16-5.71c-1.34-.63-2.8-.95-4.25-.95-1.25,0-2.5.23-3.68.7-10.93,4.33-42.15,16.04-55.1,18.18-.04,0-.24.04-.58.11-2.25.48-14.35,2.88-31.6,2.88-24.64,0-60.36-5-90.57-28.83-.17-.13-.34-.26-.52-.38-20.94-14.44-40.21-38.22-52.85-65.22-9.95-21.24-20.34-54.18-13.69-90.94.66-2.24.99-6.17-2.65-10.1-.3-.33-.75-.79-1.33-1.4-18.77-19.53-32.32-39.5-40.28-59.41-14.5-35.76-15.93-75.43-4.13-114.73,10.95-36.48,32.42-69.2,60.44-92.13,33.85-27.65,68.72-41.8,113.05-45.88l24.51-2.23c3.02-.27,5.76-1.91,7.43-4.44l9.85-14.87c10.94-16.59,35.23-41.67,49.99-51.63,16.22-10.97,34.58-19.51,54.59-25.37,19.6-5.75,39.81-8.66,60.08-8.66,25.93,0,50.81,4.94,71.91,14.27,16.63,7.43,30.74,15.63,41.91,24.36,11.35,8.92,14.05,9.56,17.13,9.56,6.21,0,10.54-5.11,12.63-10.1,1.07-1.89,6.2-9.38,14.87-21,28.29-37.47,66.04-61.11,112.22-70.28,7.17-1.42,22.73-2.37,38.72-2.37M576.43,255.75h-55.13v-43.48c0-2.54-.97-4.98-2.7-6.84l-13.74-14.67s-.02-.03-.04-.04c-27.24-28.78-61.46-43.99-98.96-43.99-6.1,0-12.35.41-18.56,1.21-30.77,3.92-52.69,13.28-75.7,32.32-20.61,17.17-39.28,48.03-44.42,73.4l-.55,2.52c-2.02-.36-4.36-.81-6.93-1.34-.06-.01-.12-.02-.18-.04-10.64-2.01-24.11-3.12-37.92-3.12s-25.79,1.06-34.77,2.99c-26.66,5.8-52.75,20.42-73.45,41.17-20.79,20.84-34.96,46.68-39.9,72.77-.01.06-.02.12-.03.18-6.62,38.83-1.48,70.18,15.26,93.2,12.99,17.86,29.93,26.24,40.85,30.02-5.03,19.4-13.26,62.1,2.09,90.91,21.29,40.29,60.66,65.32,102.75,65.32,15.9,0,31.35-3.52,45.92-10.44,22.82-10.8,45.07-34.75,61.06-65.73.02-.04.04-.08.06-.11,1.2-2.4,2.33-4.63,3.34-6.62.13.12.26.24.39.36,14.65,13.66,22.34,19.2,41.11,29.63l6.35,3.59-2.7,4.03s-.03.05-.05.08c-4.75,7.22-10.43,15.35-12.57,18.16-5.9,7.59-6.22,11.53-5.76,14.39.36,2.23,1.45,4.27,3.05,5.8,2.27,2.23,5.18,3.86,20.66,5.81,8.76,1.11,18.08,1.8,24.33,1.8,18.12,0,41.4-5.83,57.97-14.53,22.5-11.93,46.83-39.84,60.52-69.07,11.5,10.29,31.67,24.82,44.14,31.38l3.5,1.84c-.97,1.36-2.09,2.95-3.29,4.65-3.01,4.27-6.43,9.11-9.07,12.6-.08.1-.15.2-.23.31-2.16,3.08-4.07,6.22-5.37,8.83-1.22,2.43-4.92,9.84.74,15.49,2.1,2.1,5.4,4.33,20.34,6.51,8.51,1.24,17.78,1.98,24.79,1.98,16.32,0,40.96-5.93,56.13-13.51,21.87-11.03,47.7-39.74,60.11-66.78,10.22-22.32,10.94-31.61,11.86-94.24.55-32.69.39-72.45-.37-88.84-.03-2.58-.47-25.9-5.78-49.62-3.37-15.03-8.03-27.18-13.88-36.1-10.52-16.06-23.35-19.44-32.27-19.44-.78,0-1.58.03-2.37.08-2.08-6.35-4.53-19.78-3.14-35.91,1.37-15.89,6.77-37.99,24.28-55.78,26.08,7.21,48.34,10.86,66.25,10.86,30.59,0,43.27-10.84,48.52-19.93,6.51-11.27,5.33-25.74-3.32-40.72-8.51-14.74-23.95-29.16-42.35-39.58-20.74-11.74-43.82-17.94-66.73-17.94h-.01c-23.13,0-45.27,6.24-65.79,18.55-23.1,13.85-43.72,35.25-61.3,63.6-.82,1.32-1.32,2.82-1.46,4.36-2.35,25.89-6.36,78.57-5.62,86.92,0,.02,0,.05,0,.07l.07.75M809.82,268.78c5.76,7.35,14.05,11.56,22.76,11.56s16.82-4.16,22.46-11.37c8.57-10.86,7.77-23.58-2.2-34.9-.02-.02-.04-.04-.06-.07-5.97-6.66-10.58-9.82-20.63-9.82-10.92,0-20.66,6.09-25.41,15.9-4.6,9.49-3.42,20.49,3.07,28.7M349.93,555.52h0,0M715.36,24.59c-15.67,0-32.29.91-40.66,2.56-48.65,9.66-88.57,34.72-118.28,74.09-7.61,10.21-14.85,20.43-15.97,22.84-.93,2.41-2.6,4.27-3.53,4.27s-5.76-3.34-10.96-7.43c-11.88-9.28-26.55-17.83-44.01-25.62-23.03-10.18-49.23-15.14-75.99-15.14-42.08,0-85.54,12.25-120.27,35.75-15.97,10.77-41.22,36.95-52.73,54.41l-9.84,14.85-24.51,2.23c-46.42,4.27-83,19.13-118.47,48.09-58.3,47.72-91.79,138.16-59.25,218.37,14.93,37.32,44.58,64.34,43.93,64.34,0,0-.02,0-.04-.02-12.86,68.1,27.43,137.51,70.51,167.22,32.32,25.49,70.17,30.98,96.76,30.98,20,0,33.63-3.1,33.78-3.12,16.9-2.79,57.19-18.75,57.19-18.75l12.26,5.76c18.38,8.17,36.39,12.63,62.02,15.04,7.69.73,15.25,1.09,22.7,1.09,28.53,0,55.28-5.35,80.17-15.95l15.78-6.68,15.78,6.87c19.68,8.54,34.91,12.07,60.16,14.3,7.09.63,14.06.94,20.9.94,54.12,0,100.42-19.49,136.19-57.57,27.3-28.97,45.31-64.8,53.85-106.4,3.34-16.53,3.71-25.62,3.71-85.41v-67.03h7.98c4.27,0,15.41,1.3,24.51,2.6,22.94,3.64,44.61,5.69,58.83,5.69,4.66,0,8.52-.22,11.36-.68,31.75-5.38,57.19-27.11,64.99-55.33,3.53-13.55,5.76-35.65,4.09-43.08-.74-3.71-18.01-25.25-49.02-61.65l-48.09-56.08.19-22.47c0-19.68-.56-24.32-5.01-37.32-9.28-27.48-29.15-54.41-52.73-71.86-20.61-15.41-50.69-28.04-77.24-32.87-6.6-1.24-18.5-1.81-31.02-1.81h0ZM511.3,265.75h76.13l-1.11-11.7c-.56-6.31,2.63-52.24,5.62-85.14,35.69-57.56,79.3-77.41,118.59-77.42,87.39,0,153.45,98.17,63.9,98.17-17.05,0-39.74-3.56-69-12.03-47.11,41.88-30.21,113.65-23.02,113.65.16,0,.32-.04.47-.11,2.28-.51,4.46-.75,6.53-.75,41.12,0,41.93,95.45,41.93,95.45.74,15.78.93,55.52.37,88.39-.93,63.13-1.86,70.37-10.96,90.24-11.33,24.7-35.65,51.99-55.52,62.02-13.74,6.87-36.95,12.44-51.62,12.44s-35.65-3.16-38.06-5.57c-.74-.74,1.86-5.94,5.76-11.51,4.09-5.38,9.84-13.74,13.18-18.38l5.76-8.54-13.37-7.06c-14.11-7.43-40.11-26.74-47.53-35.28l-4.46-5.2-3.9,9.28c-12.26,28.78-36.39,57.38-58.12,68.89-14.85,7.8-36.77,13.37-53.29,13.37-12.63,0-36.21-2.97-38.07-4.83-.56-.37,1.11-3.53,3.71-6.87,2.41-3.16,8.36-11.7,13-18.75l8.73-13-15.78-8.91c-18.38-10.21-25.44-15.41-39.18-28.22-5.14-4.78-9.6-8.38-10.32-8.38-.04,0-.06,0-.08.03-.37.37-4.46,8.17-9.1,17.45-14.85,28.78-35.65,51.43-56.45,61.28-13.5,6.42-27.64,9.48-41.64,9.48-37.42,0-73.78-21.88-93.91-59.99-18.2-34.17,1.49-93.24,1.49-93.24,0,0-76.31-11.08-58.68-114.53,9.47-49.95,54.41-94.88,105.65-106.03,8.53-1.83,20.36-2.76,32.64-2.76s25.63.97,36.06,2.95c7.76,1.62,14.54,2.67,16.28,2.67.26,0,.41-.02.43-.07.19-.37,1.3-5.57,2.6-11.51,4.64-23.02,22.1-51.99,41.04-67.77,21.54-17.83,41.41-26.37,70.56-30.08,5.84-.76,11.61-1.13,17.29-1.13,34.78,0,66.32,14.05,91.7,40.87l13.74,14.67v53.48h0ZM832.58,270.35c-5.43,0-10.88-2.6-14.91-7.75-9.1-11.51-.37-28.41,14.48-28.41,6.13,0,8.36,1.11,13.18,6.5,6.87,7.8,7.43,15.04,1.86,22.1-3.96,5.06-9.28,7.57-14.61,7.57h0Z" fill="#fff"/>
</svg>